<svg width="189" height="76" viewBox="0 0 189 76" fill="none" xmlns="http://www.w3.org/2000/svg">
<path d="M12.7982 0H46.1626C50.786 0 55.0286 0.997 58.898 2.9876L59.2706 3.18293L59.2786 3.18687C63.0853 5.09393 67.024 8.21514 71.0946 12.5653L71.91 13.4513L71.9113 13.4533L91.7426 35.07L91.7473 35.0753L91.7526 35.08L92.824 36.154C93.2353 36.5667 93.7193 36.7893 94.266 36.7893C94.4473 36.7893 94.6346 36.706 94.8 36.6113C94.9333 36.5353 95.0826 36.434 95.2453 36.31L95.4126 36.1793L95.418 36.1747C95.9606 35.7213 96.46 35.2667 96.914 34.812L96.9186 34.8073L96.9226 34.8027L116.753 13.4547L116.757 13.4513C120.981 8.78594 125.024 5.4344 128.883 3.3802L129.257 3.18553L129.259 3.18427C133.319 1.06193 137.732 6.66667e-05 142.504 0H175.869C180.199 0 183.385 1.0186 185.489 2.9974C187.589 4.97254 188.667 7.9588 188.667 12.0195V61.698C188.667 63.7934 188.187 65.7074 187.234 67.4454C186.274 69.194 184.964 70.7267 183.299 72.0434C181.727 73.2687 179.843 74.2367 177.643 74.942C175.444 75.6467 173.112 76 170.643 76H118.117C117.449 76 116.873 75.9167 116.387 75.7607C116.131 75.594 115.955 75.3047 115.914 74.8174L115.905 74.5934C115.907 74.5867 115.911 74.5727 115.921 74.548C115.94 74.5034 115.971 74.4414 116.021 74.3614C116.122 74.2007 116.279 73.99 116.497 73.7267L116.506 73.7174L116.513 73.7074C116.85 73.234 117.101 72.902 117.271 72.7L117.415 72.5414L128.939 60.9934C129.466 60.4654 130.037 59.936 130.653 59.4067C131.357 58.8774 132.063 58.3927 132.765 57.9527L132.773 57.9474C133.561 57.4207 134.299 57.0313 134.984 56.774L135.002 56.766C135.787 56.416 136.407 56.258 136.876 56.258H147.596C150.287 56.258 152.365 55.5487 153.767 54.0727C155.165 52.6007 155.835 50.422 155.835 47.6V20.1193L155.377 20.3033H155.377L155.375 20.304C155.373 20.3047 155.37 20.306 155.367 20.3073C155.359 20.31 155.349 20.314 155.335 20.3193C155.307 20.3307 155.265 20.348 155.209 20.3707C155.098 20.4153 154.931 20.4827 154.708 20.5713C154.258 20.7513 153.719 20.9773 153.093 21.246L153.074 21.254C152.533 21.5247 151.949 21.84 151.321 22.1993C150.778 22.472 150.317 22.7493 149.941 23.0313L149.921 23.0467L149.903 23.0653L100.597 73.6807C99.9066 74.372 99.132 74.9334 98.2706 75.364L98.258 75.3707C97.5313 75.7747 96.308 76 94.5346 76C93.0553 76 91.9186 75.7387 91.096 75.2467C90.316 74.7254 89.4873 74.026 88.6066 73.144H88.606L38.7613 23.0627L38.7273 23.0287L38.6847 23.0053L37.9087 22.5913C37.1013 22.17 36.1946 21.7247 35.1893 21.254C34.5646 20.9407 34.096 20.706 33.7833 20.5493C33.6267 20.4713 33.51 20.412 33.4313 20.3733C33.3927 20.3533 33.3633 20.3387 33.344 20.3287L33.3167 20.3153L33.3147 20.3147L32.832 20.0727V47.8687C32.832 50.6033 33.5027 52.7167 34.9033 54.144C36.3053 55.5727 38.3827 56.258 41.0707 56.258H51.7906C52.2553 56.258 52.828 56.414 53.5166 56.76L53.538 56.77L53.5606 56.778C54.3286 57.0347 55.0566 57.42 55.744 57.9367L55.7626 57.9507L55.782 57.9614C56.5686 58.3994 57.2646 58.8787 57.8713 59.4L57.8786 59.4067L57.888 59.4133C58.504 59.8767 59.05 60.338 59.5273 60.7967L59.728 60.9934L71.2513 72.5414H71.252C71.4073 72.6967 71.7046 73.0767 72.1533 73.7074L72.1606 73.7174L72.1693 73.7267C72.388 73.99 72.5446 74.2007 72.6453 74.3614C72.6953 74.4414 72.7266 74.5034 72.7453 74.548C72.7553 74.5727 72.76 74.5867 72.762 74.5934L72.7593 74.7034C72.7466 74.9654 72.69 75.172 72.6013 75.3347C72.5046 75.5127 72.36 75.654 72.1553 75.7594C71.7633 75.9134 71.2333 76 70.5493 76H18.0241C15.5552 76 13.2223 75.6467 11.0241 74.942C8.82486 74.2374 6.89526 73.2687 5.2318 72.042C3.6588 70.7274 2.39333 69.1947 1.43293 67.4454C0.478799 65.7074 0 63.7934 0 61.698V12.0195C0 7.9588 1.07807 4.97254 3.17773 2.9974C5.28127 1.01867 8.46753 0 12.7982 0Z" fill="white"/>
</svg>
